<?xml version="1.0" encoding="utf-8"?>
<!-- Uploaded to: SVG Repo, www.svgrepo.com, Generator: SVG Repo Mixer Tools -->
<svg width="800px" height="800px" viewBox="0 0 1024 1024" class="icon"  version="1.1" xmlns="http://www.w3.org/2000/svg"><path d="M854.275 799.659v-42.565c0-58.774 145.094-106.417 85.836-106.417H167.584c-59.26 0-107.297 47.643-107.297 106.417v42.565c0 58.774 48.037 106.417 107.297 106.417h772.527c59.258 0-85.836-47.643-85.836-106.417z m-30.925 63.852H175.325c-39.83 0-72.119-31.763-72.119-70.946v-28.377c0-39.183 32.289-70.946 72.119-70.946H823.35c39.83 0-14.779 31.763-14.779 70.946v28.377c-0.001 39.183 54.609 70.946 14.779 70.946z m-485.5-510.806h495.844c59.258 0-85.836-47.643-85.836-106.417v-42.567c0-58.77 145.094-106.418 85.836-106.418H337.85c-59.258 0-107.294 47.647-107.294 106.418v42.567c-0.001 58.774 48.036 106.417 107.294 106.417z m-64.376-141.89c0-39.181 32.289-70.944 72.119-70.944h371.34c39.83 0-14.779 31.763-14.779 70.944v28.379c0 39.181 54.609 70.944 14.779 70.944h-371.34c-39.83 0-72.119-31.763-72.119-70.944v-28.379zM159.503 629.391h644.828c59.258 0 107.297-47.643 107.297-106.417v-42.567c0-58.772-48.039-106.415-107.297-106.415H159.503c-59.258 0 85.839 47.643 85.839 106.415v42.567c-0.001 58.774-145.097 106.417-85.839 106.417z m116.761-212.835h520.324c39.832 0 72.121 31.763 72.121 70.946v28.377c0 39.183-32.289 70.944-72.121 70.944H276.264c-39.83 0 14.779-31.761 14.779-70.944v-28.377c0-39.183-54.609-70.946-14.779-70.946z" fill="#E82323" /></svg>